# xmcd CD database file
#
# Track frame offsets:
#	150
#	20207
#	50577
#	68512
#	87140
#	104245
#	118432
#	146520
#	167677
#	188195
#	210800
#	235372
#	253652
#
# Disc length: 3683 seconds
#
# Revision: 0
# Processed by: cddbd v1.5.2PL0 Copyright (c) Steve Scherf et al.
# Submitted via: CDex 1.51
#
DISCID=bd0e610d
DTITLE=Various Artist - Chicago Blues Live Vol1
DYEAR=1998
DGENRE=Blues
TTITLE0=Willie Dixon-Built For Comfort
TTITLE1=Muddy Waters-Howling Wolf
TTITLE2=Louis Myers-Little Walter Boogie
TTITLE3=Louis Myers-That's All Right
TTITLE4=Homesick James-Gotta Move
TTITLE5=Homesick James-Early One Morning
TTITLE6=Snooky Pryor-Harp Boogie
TTITLE7=Snooky Prior-Bluebird Blues
TTITLE8=Eddie Taylor-Lookout In The Weather
TTITLE9=Eddie Taylor-Bullcow Blues
TTITLE10=Howling Wolf-Evil
TTITLE11=Detroit Junior-Call My Job
TTITLE12=Detroit Junior-Cool Water Blues
EXTD=YEAR: 1998
EXTT0=
EXTT1=
EXTT2=
EXTT3=
EXTT4=
EXTT5=
EXTT6=
EXTT7=
EXTT8=
EXTT9=
EXTT10=
EXTT11=
EXTT12=
PLAYORDER=
